<?xml version="1.0" encoding="iso-8859-1"?>
<!-- Generator: Adobe Illustrator 19.0.0, SVG Export Plug-In . SVG Version: 6.00 Build 0)  -->
<svg version="1.1" id="Layer_1" xmlns="http://www.w3.org/2000/svg" xmlns:xlink="http://www.w3.org/1999/xlink" x="0px" y="0px"
	 viewBox="0 0 512 512" style="enable-background:new 0 0 512 512;" xml:space="preserve">
<g>
	<polygon style="fill:#BDC3C7;" points="406.069,105.931 300.138,105.931 300.138,0 	"/>
	<polygon style="fill:#53b6ac;" points="35.31,406.069 512,406.069 512,194.207 35.31,194.207 	"/>
	<path style="fill:#FFFFFF;" d="M203.034,379.586c-24.338,0-44.138-19.8-44.138-44.138c0-4.873,3.955-8.828,8.828-8.828
		s8.828,3.955,8.828,8.828c0,14.601,11.882,26.483,26.483,26.483c14.601,0,26.483-11.882,26.483-26.483
		s-11.882-26.483-26.483-26.483c-24.338,0-44.138-19.8-44.138-44.138c0-24.338,19.8-44.138,44.138-44.138s44.138,19.8,44.138,44.138
		c0,4.873-3.955,8.828-8.828,8.828c-4.873,0-8.828-3.955-8.828-8.828c0-14.601-11.882-26.483-26.483-26.483
		c-14.601,0-26.483,11.882-26.483,26.483c0,14.601,11.882,26.483,26.483,26.483c24.338,0,44.138,19.8,44.138,44.138
		S227.372,379.586,203.034,379.586"/>
	<polygon style="fill:#ECF0F1;" points="35.31,406.069 35.31,194.207 406.069,194.207 406.069,105.931 300.138,105.931 300.138,0 
		0,0 0,512 406.069,512 406.069,406.069 	"/>
	<g>
		<path style="fill:#FFFFFF;" d="M97.103,379.586c-19.474,0-35.31-15.837-35.31-35.31c0-4.873,3.955-8.828,8.828-8.828
			s8.828,3.955,8.828,8.828c0,9.737,7.918,17.655,17.655,17.655s17.655-7.918,17.655-17.655V238.345
			c0-4.873,3.955-8.828,8.828-8.828s8.828,3.955,8.828,8.828v105.931C132.414,363.75,116.577,379.586,97.103,379.586"/>
		<path style="fill:#FFFFFF;" d="M308.966,238.345c-9.737,0-17.655,7.918-17.655,17.655v88.276c0,9.737,7.918,17.655,17.655,17.655
			h8.828c9.737,0,17.655-7.918,17.655-17.655V256c0-9.737-7.918-17.655-17.655-17.655H308.966z M317.793,379.586h-8.828
			c-19.474,0-35.31-15.837-35.31-35.31V256c0-19.474,15.837-35.31,35.31-35.31h8.828c19.474,0,35.31,15.837,35.31,35.31v88.276
			C353.103,363.75,337.267,379.586,317.793,379.586L317.793,379.586z"/>
		<path style="fill:#FFFFFF;" d="M476.69,379.586c-2.984,0-5.844-1.518-7.486-4.149l-71.962-115.138v110.46
			c0,4.873-3.955,8.828-8.828,8.828s-8.828-3.955-8.828-8.828V229.517c0-3.937,2.604-7.398,6.391-8.483
			c3.787-1.077,7.839,0.459,9.922,3.805l71.962,115.138v-110.46c0-4.873,3.955-8.828,8.828-8.828c4.873,0,8.828,3.955,8.828,8.828
			v141.241c0,3.937-2.604,7.398-6.391,8.483C478.323,379.471,477.502,379.586,476.69,379.586"/>
	</g>
</g>
<g>
</g>
<g>
</g>
<g>
</g>
<g>
</g>
<g>
</g>
<g>
</g>
<g>
</g>
<g>
</g>
<g>
</g>
<g>
</g>
<g>
</g>
<g>
</g>
<g>
</g>
<g>
</g>
<g>
</g>
</svg>
