<svg id="_x31__x2C_5" fill="#b9bbbe" enable-background="new 0 0 24 24" height="512" viewBox="0 0 24 24" width="512" xmlns="http://www.w3.org/2000/svg"><path d="m12 24c-.414 0-.75-.336-.75-.75v-9.75c0-.414.336-.75.75-.75s.75.336.75.75v9.75c0 .414-.336.75-.75.75z"/><path d="m8.25 24c-.414 0-.75-.336-.75-.75v-3.25c0-.414.336-.75.75-.75s.75.336.75.75v3.25c0 .414-.336.75-.75.75z"/><path d="m8.25 20.75c-.211 0-.421-.089-.57-.262l-3-3.5c-.116-.135-.18-.309-.18-.488v-3c0-.414.336-.75.75-.75s.75.336.75.75v2.723l2.819 3.289c.27.314.233.788-.081 1.058-.141.12-.315.18-.488.18z"/><path d="m5.25 14c-1.103 0-2-.897-2-2s.897-2 2-2 2 .897 2 2-.897 2-2 2zm0-2.5c-.276 0-.5.225-.5.5s.224.5.5.5.5-.225.5-.5-.224-.5-.5-.5z"/><path d="m15.75 24c-.414 0-.75-.336-.75-.75v-3.25c0-.414.336-.75.75-.75s.75.336.75.75v3.25c0 .414-.336.75-.75.75z"/><path d="m15.75 20.75c-.173 0-.346-.06-.488-.181-.314-.27-.351-.743-.081-1.058l2.819-3.288v-2.723c0-.414.336-.75.75-.75s.75.336.75.75v3c0 .179-.064.353-.181.488l-3 3.5c-.148.173-.358.262-.569.262z"/><path d="m12 14c-1.103 0-2-.897-2-2s.897-2 2-2 2 .897 2 2-.897 2-2 2zm0-2.5c-.276 0-.5.225-.5.5s.224.5.5.5.5-.225.5-.5-.224-.5-.5-.5z"/><path d="m18.75 14c-1.103 0-2-.897-2-2s.897-2 2-2 2 .897 2 2-.897 2-2 2zm0-2.5c-.276 0-.5.225-.5.5s.224.5.5.5.5-.225.5-.5-.224-.5-.5-.5z"/><path d="m21.25 22h-2.5c-.414 0-.75-.336-.75-.75s.336-.75.75-.75h2.5c.689 0 1.25-.561 1.25-1.25v-16.5c0-.689-.561-1.25-1.25-1.25h-18.5c-.689 0-1.25.561-1.25 1.25v16.5c0 .689.561 1.25 1.25 1.25h2.5c.414 0 .75.336.75.75s-.336.75-.75.75h-2.5c-1.517 0-2.75-1.233-2.75-2.75v-16.5c0-1.517 1.233-2.75 2.75-2.75h18.5c1.517 0 2.75 1.233 2.75 2.75v16.5c0 1.517-1.233 2.75-2.75 2.75z"/><path d="m23.25 5h-22.5c-.414 0-.75-.336-.75-.75s.336-.75.75-.75h22.5c.414 0 .75.336.75.75s-.336.75-.75.75z"/></svg>
